<?xml version="1.0" encoding="UTF-8"?>
<svg id="Layer_1" data-name="Layer 1" xmlns="http://www.w3.org/2000/svg" viewBox="0 0 1080 720">
  <defs>
    <style>
      .cls-1 {
        fill: #1a4348;
      }
    </style>
  </defs>
  <g>
    <path class="cls-1" d="m308.42,429.38v-104.81h41.92c19.8,0,32.44,11.65,32.44,26.95,0,9.65-2.66,16.14-8.48,20.13,10.31,4.66,15.31,12.98,15.31,24.95,0,20.96-14.97,32.77-40.09,32.77h-41.09Zm19.96-86.51v21.46h19.8c9.65,0,13.81-4.16,13.81-10.81,0-6.99-3.66-10.65-13.98-10.65h-19.63Zm0,39.76v28.45h20.3c14.31,0,20.13-5.32,20.13-14.47s-6.16-13.97-20.13-13.97h-20.3Z"/>
    <path class="cls-1" d="m435.18,347.03c22.96,0,41.92,17.47,41.92,41.92s-18.97,41.76-41.92,41.76-42.09-17.47-42.09-41.76,18.8-41.92,42.09-41.92Zm0,64.22c11.98,0,21.96-8.65,21.96-22.46s-9.98-22.29-21.96-22.29-22.29,8.65-22.29,22.29,9.98,22.46,22.29,22.46Z"/>
    <path class="cls-1" d="m480.6,347.86h19.8v43.92c0,13.81,5.99,19.8,16.97,19.8,14.14,0,22.29-12.14,22.29-12.14v-51.57h19.96v81.52h-17.47l-2.16-10.81c-6.82,7.82-15.8,12.15-26.78,12.15-18.97,0-32.61-14.47-32.61-34.11v-48.75Z"/>
    <path class="cls-1" d="m642.8,429.38h-19.8v-43.26c0-13.97-5.99-19.96-16.97-19.96-14.14,0-22.29,11.65-22.29,11.65v51.57h-19.96v-81.52h18.3l1.66,10.81c6.65-7.65,15.64-11.65,26.45-11.65,18.97,0,32.61,14.47,32.61,34.11v48.25Z"/>
    <path class="cls-1" d="m711.5,322.07h19.96v107.31h-18.3l-1.5-9.32c-6.82,6.99-15.97,10.65-25.45,10.65-22.29,0-39.93-17.47-39.93-41.76s17.63-41.92,39.93-41.92c9.48,0,18.47,3.66,25.29,10.48v-35.44Zm-23.12,44.09c-12.48,0-22.63,8.82-22.63,22.79s10.15,22.63,22.63,22.63,23.12-8.82,23.12-22.63-10.31-22.79-23.12-22.79Z"/>
    <path class="cls-1" d="m735.62,322.07h19.96v107.31h-19.96v-107.31Z"/>
    <path class="cls-1" d="m841.76,400.1c-2.83,18.3-21.46,30.61-40.76,30.61-23.29,0-42.09-17.47-42.09-41.76s18.8-41.92,42.09-41.92,40.76,15.14,41.43,39.1v7.65h-63.22c2,10.81,10.98,17.47,21.79,17.47,8.32,0,15.97-3.99,19.46-11.15h21.29Zm-22.13-22.13c-3.33-7.15-10.15-11.48-18.63-11.48s-16.14,4.33-19.8,11.48h38.43Z"/>
    <path class="cls-1" d="m910.8,406.75c0,14.47-11.65,23.96-30.78,23.96-20.13,0-33.61-13.31-34.1-29.95h19.96c.83,6.65,6.65,10.48,14.47,10.48,6.16,0,10.48-2,10.48-5.66,0-8.98-43.75-2.33-43.75-33.11,0-13.97,12.48-25.45,31.61-25.45s30.78,12.15,31.28,30.11h-20.13c-1.16-6.99-5.32-10.65-11.81-10.65s-11.15,2.33-11.15,6.49c0,11.98,43.92,4.66,43.92,33.77Z"/>
    <path class="cls-1" d="m978.34,406.75c0,14.47-11.65,23.96-30.78,23.96-20.13,0-33.61-13.31-34.1-29.95h19.96c.83,6.65,6.65,10.48,14.47,10.48,6.16,0,10.48-2,10.48-5.66,0-8.98-43.75-2.33-43.75-33.11,0-13.97,12.48-25.45,31.61-25.45s30.78,12.15,31.28,30.11h-20.13c-1.16-6.99-5.32-10.65-11.81-10.65s-11.15,2.33-11.15,6.49c0,11.98,43.92,4.66,43.92,33.77Z"/>
  </g>
  <polygon class="cls-1" points="133.52 440.86 207.96 396.2 207.96 358.98 133.52 306.87 96.3 329.2 170.74 373.86 133.52 396.2 133.52 440.86"/>
  <polygon class="cls-1" points="214.51 315.88 288.95 360.54 288.95 397.76 214.51 449.87 177.29 427.54 251.73 382.88 214.51 360.54 214.51 315.88"/>
</svg>