<svg width="855" height="138" viewBox="0 0 855 138" fill="none" xmlns="http://www.w3.org/2000/svg">
<path d="M210.732 127.962V27.1992H251.043C270.074 27.1992 282.235 38.3992 282.235 53.1086C282.235 62.3859 279.678 68.6206 274.078 72.4659C283.99 76.9459 288.796 84.9446 288.796 96.4619C288.796 116.613 274.404 127.971 250.25 127.971H210.742L210.732 127.962ZM229.922 44.7926V65.4286H248.952C258.23 65.4286 262.224 61.4339 262.224 55.0312C262.224 48.3112 258.706 44.7926 248.784 44.7926H229.912H229.922ZM229.922 83.0219V110.369H249.438C263.195 110.369 268.795 105.254 268.795 96.4526C268.795 87.6512 262.878 83.0126 249.438 83.0126H229.922V83.0219Z" fill="#1A4348"/>
<path d="M332.616 48.7969C354.689 48.7969 372.926 65.5875 372.926 89.1075C372.926 112.628 354.689 129.25 332.616 129.25C310.542 129.25 292.146 112.46 292.146 89.1075C292.146 65.7555 310.216 48.7969 332.616 48.7969ZM332.616 110.537C344.133 110.537 353.728 102.221 353.728 88.9489C353.728 75.6769 344.133 67.5195 332.616 67.5195C321.098 67.5195 311.186 75.8355 311.186 88.9489C311.186 102.062 320.781 110.537 332.616 110.537Z" fill="#1A4348"/>
<path d="M376.277 49.5914H395.308V91.8154C395.308 105.087 401.066 110.846 411.622 110.846C425.221 110.846 433.052 99.17 433.052 99.17V49.582H452.241V127.954H435.45L433.369 117.557C426.808 125.07 418.174 129.233 407.618 129.233C389.381 129.233 376.268 115.317 376.268 96.4447V49.582L376.277 49.5914Z" fill="#1A4348"/>
<path d="M532.228 127.964H513.197V86.3744C513.197 72.9344 507.438 67.1851 496.882 67.1851C483.284 67.1851 475.453 78.3851 475.453 78.3851V127.964H456.264V49.5917H473.857L475.453 59.9891C481.856 52.6344 490.489 48.7891 500.886 48.7891C519.124 48.7891 532.237 62.7051 532.237 81.5771V127.964H532.228Z" fill="#1A4348"/>
<path d="M598.28 24.8008H617.479V127.962H599.885L598.448 119.002C591.887 125.722 583.095 129.241 573.976 129.241C552.547 129.241 535.588 112.45 535.588 89.0981C535.588 65.7461 552.547 48.7874 573.976 48.7874C583.095 48.7874 591.728 52.3061 598.289 58.8674V24.8008H598.28ZM576.048 67.1834C564.055 67.1834 554.292 75.6581 554.292 89.0981C554.292 102.538 564.045 110.854 576.048 110.854C588.051 110.854 598.28 102.379 598.28 89.0981C598.28 75.8168 588.368 67.1834 576.048 67.1834Z" fill="#1A4348"/>
<path d="M621.475 24.8008H640.664V127.962H621.475V24.8008Z" fill="#1A4348"/>
<path d="M723.515 99.8144C720.799 117.408 702.879 129.242 684.325 129.242C661.934 129.242 643.855 112.452 643.855 89.0997C643.855 65.7477 661.934 48.7891 684.325 48.7891C706.715 48.7891 723.515 63.3491 724.15 86.3744V93.7291H663.371C665.294 104.126 673.927 110.52 684.325 110.52C692.323 110.52 699.678 106.684 703.038 99.8051H723.515V99.8144ZM702.245 78.5437C699.043 71.6651 692.491 67.5117 684.334 67.5117C676.177 67.5117 668.822 71.6744 665.303 78.5437H702.254H702.245Z" fill="#1A4348"/>
<path d="M789.894 106.216C789.894 120.132 778.694 129.25 760.308 129.25C740.95 129.25 727.996 116.454 727.52 100.457H746.709C747.512 106.85 753.112 110.537 760.625 110.537C766.542 110.537 770.705 108.614 770.705 105.096C770.705 96.4622 728.64 102.856 728.64 73.2689C728.64 59.8289 740.633 48.7969 759.029 48.7969C777.425 48.7969 788.616 60.4729 789.101 77.7489H769.744C768.624 71.0289 764.629 67.5102 758.385 67.5102C752.141 67.5102 747.67 69.7502 747.67 73.7449C747.67 85.2622 789.894 78.2249 789.894 106.216Z" fill="#1A4348"/>
<path d="M854.836 106.216C854.836 120.132 843.636 129.25 825.249 129.25C805.892 129.25 792.937 116.454 792.461 100.457H811.65C812.453 106.85 818.053 110.537 825.566 110.537C831.484 110.537 835.646 108.614 835.646 105.096C835.646 96.4622 793.581 102.856 793.581 73.2689C793.581 59.8289 805.574 48.7969 823.97 48.7969C842.366 48.7969 853.557 60.4729 854.042 77.7489H834.685C833.565 71.0289 829.57 67.5102 823.326 67.5102C817.082 67.5102 812.612 69.7502 812.612 73.7449C812.612 85.2622 854.836 78.2249 854.836 106.216Z" fill="#1A4348"/>
<path d="M35.784 128.837L107.352 85.8853V50.1013L35.784 0L0 21.476L71.568 64.4187L35.784 85.8853V128.837Z" fill="#1A4348"/>
<path d="M113.651 8.66016V51.6122L149.435 73.0788L77.8672 116.022L113.651 137.498L185.229 87.3962V51.6122L113.651 8.66016Z" fill="#1A4348"/>
</svg>
